<svg xmlns="http://www.w3.org/2000/svg" viewBox="0 0 320 320" width="320" height="320">

<g fill="#F4F4F4">
<circle cx="160.0" cy="54.0" r="8.2"/>
<circle cx="183.8" cy="71.1" r="8.2"/>
<circle cx="213.0" cy="68.2" r="8.2"/>
<circle cx="225.1" cy="94.9" r="8.2"/>
<circle cx="251.8" cy="107.0" r="8.2"/>
<circle cx="248.9" cy="136.2" r="8.2"/>
<circle cx="266.0" cy="160.0" r="8.2"/>
<circle cx="248.9" cy="183.8" r="8.2"/>
<circle cx="251.8" cy="213.0" r="8.2"/>
<circle cx="225.1" cy="225.1" r="8.2"/>
<circle cx="213.0" cy="251.8" r="8.2"/>
<circle cx="183.8" cy="248.9" r="8.2"/>
<circle cx="160.0" cy="266.0" r="8.2"/>
<circle cx="136.2" cy="248.9" r="8.2"/>
<circle cx="107.0" cy="251.8" r="8.2"/>
<circle cx="94.9" cy="225.1" r="8.2"/>
<circle cx="68.2" cy="213.0" r="8.2"/>
<circle cx="71.1" cy="183.8" r="8.2"/>
<circle cx="54.0" cy="160.0" r="8.2"/>
<circle cx="71.1" cy="136.2" r="8.2"/>
<circle cx="68.2" cy="107.0" r="8.2"/>
<circle cx="94.9" cy="94.9" r="8.2"/>
<circle cx="107.0" cy="68.2" r="8.2"/>
<circle cx="136.2" cy="71.1" r="8.2"/>
<circle cx="106.0" cy="156.0" r="8.2"/>
<circle cx="128.0" cy="178.0" r="8.2"/>
<circle cx="150.0" cy="200.0" r="8.2"/>
<circle cx="170.0" cy="176.0" r="8.2"/>
<circle cx="190.0" cy="152.0" r="8.2"/>
<circle cx="209.0" cy="128.0" r="8.2"/>
</g></svg>